<mxfile host="app.diagrams.net" modified="2024-01-06T23:38:07.644Z" agent="Mozilla/5.0 (Windows NT 10.0; Win64; x64) AppleWebKit/537.36 (KHTML, like Gecko) Chrome/120.0.0.0 Safari/537.36" etag="jsCwSpKgz0oY2dEeZ5DB" version="22.1.17" type="device">
  <diagram name="Page-1" id="tUHZQ2hVzNUIm_RuZzN9">
    <mxGraphModel dx="2758" dy="1452" grid="0" gridSize="10" guides="1" tooltips="1" connect="1" arrows="1" fold="1" page="1" pageScale="1" pageWidth="1700" pageHeight="1100" math="0" shadow="0">
      <root>
        <mxCell id="0" />
        <mxCell id="1" parent="0" />
        <mxCell id="9klteQdlAnsfhJRgXyKs-1" value="Actor" style="shape=umlActor;verticalLabelPosition=bottom;verticalAlign=top;html=1;outlineConnect=0;" vertex="1" parent="1">
          <mxGeometry x="30" y="40" width="40" height="60" as="geometry" />
        </mxCell>
        <mxCell id="9klteQdlAnsfhJRgXyKs-2" value="&lt;font style=&quot;font-size: 17px;&quot;&gt;&lt;b&gt;Keycloak&lt;br&gt;(+ AD)&lt;br&gt;&lt;/b&gt;&lt;/font&gt;" style="whiteSpace=wrap;html=1;aspect=fixed;" vertex="1" parent="1">
          <mxGeometry x="320" y="40" width="80" height="80" as="geometry" />
        </mxCell>
        <mxCell id="9klteQdlAnsfhJRgXyKs-4" value="&lt;font style=&quot;font-size: 17px;&quot;&gt;&lt;b&gt;FCM&lt;/b&gt;&lt;/font&gt;" style="whiteSpace=wrap;html=1;aspect=fixed;" vertex="1" parent="1">
          <mxGeometry x="560" y="40" width="80" height="80" as="geometry" />
        </mxCell>
        <mxCell id="9klteQdlAnsfhJRgXyKs-5" value="&lt;b style=&quot;border-color: var(--border-color); font-size: 17px;&quot;&gt;Android App&lt;/b&gt;" style="whiteSpace=wrap;html=1;aspect=fixed;" vertex="1" parent="1">
          <mxGeometry x="800" y="40" width="80" height="80" as="geometry" />
        </mxCell>
        <mxCell id="9klteQdlAnsfhJRgXyKs-6" value="&lt;font style=&quot;font-size: 17px;&quot;&gt;&lt;b&gt;Frontend&lt;/b&gt;&lt;/font&gt;" style="whiteSpace=wrap;html=1;aspect=fixed;" vertex="1" parent="1">
          <mxGeometry x="1040" y="39" width="80" height="80" as="geometry" />
        </mxCell>
        <mxCell id="9klteQdlAnsfhJRgXyKs-19" value="" style="endArrow=none;dashed=1;html=1;rounded=0;" edge="1" parent="1" source="9klteQdlAnsfhJRgXyKs-10">
          <mxGeometry width="50" height="50" relative="1" as="geometry">
            <mxPoint x="360" y="890" as="sourcePoint" />
            <mxPoint x="360" y="120" as="targetPoint" />
            <Array as="points">
              <mxPoint x="360" y="150" />
            </Array>
          </mxGeometry>
        </mxCell>
        <mxCell id="9klteQdlAnsfhJRgXyKs-22" value="" style="endArrow=none;dashed=1;html=1;rounded=0;" edge="1" parent="1">
          <mxGeometry width="50" height="50" relative="1" as="geometry">
            <mxPoint x="839.5" y="890" as="sourcePoint" />
            <mxPoint x="839.5" y="120" as="targetPoint" />
          </mxGeometry>
        </mxCell>
        <mxCell id="9klteQdlAnsfhJRgXyKs-23" value="" style="endArrow=none;dashed=1;html=1;rounded=0;" edge="1" parent="1" source="9klteQdlAnsfhJRgXyKs-18">
          <mxGeometry width="50" height="50" relative="1" as="geometry">
            <mxPoint x="1079.5" y="889" as="sourcePoint" />
            <mxPoint x="1079.5" y="119" as="targetPoint" />
          </mxGeometry>
        </mxCell>
        <mxCell id="9klteQdlAnsfhJRgXyKs-24" value="" style="endArrow=none;dashed=1;html=1;rounded=0;" edge="1" parent="1" source="9klteQdlAnsfhJRgXyKs-8">
          <mxGeometry width="50" height="50" relative="1" as="geometry">
            <mxPoint x="49.5" y="890" as="sourcePoint" />
            <mxPoint x="49.5" y="120" as="targetPoint" />
          </mxGeometry>
        </mxCell>
        <mxCell id="9klteQdlAnsfhJRgXyKs-25" value="" style="endArrow=none;dashed=1;html=1;rounded=0;" edge="1" parent="1" target="9klteQdlAnsfhJRgXyKs-8">
          <mxGeometry width="50" height="50" relative="1" as="geometry">
            <mxPoint x="49.5" y="890" as="sourcePoint" />
            <mxPoint x="49.5" y="120" as="targetPoint" />
          </mxGeometry>
        </mxCell>
        <mxCell id="9klteQdlAnsfhJRgXyKs-8" value="" style="rounded=0;whiteSpace=wrap;html=1;fillColor=#dae8fc;strokeColor=#6c8ebf;" vertex="1" parent="1">
          <mxGeometry x="32.5" y="160" width="35" height="1160" as="geometry" />
        </mxCell>
        <mxCell id="9klteQdlAnsfhJRgXyKs-26" value="" style="endArrow=none;dashed=1;html=1;rounded=0;" edge="1" parent="1" target="9klteQdlAnsfhJRgXyKs-10">
          <mxGeometry width="50" height="50" relative="1" as="geometry">
            <mxPoint x="360" y="890" as="sourcePoint" />
            <mxPoint x="360" y="120" as="targetPoint" />
          </mxGeometry>
        </mxCell>
        <mxCell id="9klteQdlAnsfhJRgXyKs-10" value="" style="rounded=0;whiteSpace=wrap;html=1;fillColor=#dae8fc;strokeColor=#6c8ebf;" vertex="1" parent="1">
          <mxGeometry x="340" y="280" width="40" height="1040" as="geometry" />
        </mxCell>
        <mxCell id="9klteQdlAnsfhJRgXyKs-27" value="" style="endArrow=classic;html=1;rounded=0;entryX=0;entryY=0;entryDx=0;entryDy=0;" edge="1" parent="1" target="9klteQdlAnsfhJRgXyKs-18">
          <mxGeometry width="50" height="50" relative="1" as="geometry">
            <mxPoint x="70" y="160" as="sourcePoint" />
            <mxPoint x="1302.5" y="160" as="targetPoint" />
          </mxGeometry>
        </mxCell>
        <mxCell id="9klteQdlAnsfhJRgXyKs-28" value="&lt;font style=&quot;font-size: 17px;&quot;&gt;&lt;b&gt;Backend&lt;/b&gt;&lt;/font&gt;" style="whiteSpace=wrap;html=1;aspect=fixed;" vertex="1" parent="1">
          <mxGeometry x="1280" y="40" width="80" height="80" as="geometry" />
        </mxCell>
        <mxCell id="9klteQdlAnsfhJRgXyKs-29" value="" style="endArrow=none;dashed=1;html=1;rounded=0;" edge="1" parent="1">
          <mxGeometry width="50" height="50" relative="1" as="geometry">
            <mxPoint x="1319.5" y="890" as="sourcePoint" />
            <mxPoint x="1319.5" y="120" as="targetPoint" />
          </mxGeometry>
        </mxCell>
        <mxCell id="9klteQdlAnsfhJRgXyKs-30" value="" style="endArrow=none;dashed=1;html=1;rounded=0;" edge="1" parent="1" target="9klteQdlAnsfhJRgXyKs-18">
          <mxGeometry width="50" height="50" relative="1" as="geometry">
            <mxPoint x="1079.5" y="889" as="sourcePoint" />
            <mxPoint x="1079.5" y="119" as="targetPoint" />
          </mxGeometry>
        </mxCell>
        <mxCell id="9klteQdlAnsfhJRgXyKs-18" value="" style="rounded=0;whiteSpace=wrap;html=1;fillColor=#dae8fc;strokeColor=#6c8ebf;" vertex="1" parent="1">
          <mxGeometry x="1062.5" y="159" width="35" height="1161" as="geometry" />
        </mxCell>
        <mxCell id="9klteQdlAnsfhJRgXyKs-31" value="&lt;font style=&quot;font-size: 19px;&quot;&gt;tries to access the website&lt;/font&gt;" style="text;html=1;align=center;verticalAlign=middle;resizable=0;points=[];autosize=1;strokeColor=none;fillColor=none;labelBackgroundColor=default;" vertex="1" parent="1">
          <mxGeometry x="630" y="140" width="250" height="40" as="geometry" />
        </mxCell>
        <mxCell id="9klteQdlAnsfhJRgXyKs-36" value="" style="endArrow=classic;html=1;rounded=0;" edge="1" parent="1">
          <mxGeometry width="50" height="50" relative="1" as="geometry">
            <mxPoint x="70" y="280" as="sourcePoint" />
            <mxPoint x="340" y="280" as="targetPoint" />
          </mxGeometry>
        </mxCell>
        <mxCell id="9klteQdlAnsfhJRgXyKs-46" value="&lt;font style=&quot;font-size: 19px;&quot;&gt;enters the login &lt;br&gt;credentials&lt;/font&gt;" style="text;html=1;align=center;verticalAlign=middle;resizable=0;points=[];autosize=1;strokeColor=none;fillColor=none;labelBackgroundColor=default;" vertex="1" parent="1">
          <mxGeometry x="125" y="245" width="150" height="60" as="geometry" />
        </mxCell>
        <mxCell id="9klteQdlAnsfhJRgXyKs-48" value="&lt;font size=&quot;1&quot; style=&quot;&quot;&gt;&lt;b style=&quot;font-size: 13px;&quot;&gt;PostgreSQL&lt;/b&gt;&lt;/font&gt;" style="whiteSpace=wrap;html=1;aspect=fixed;" vertex="1" parent="1">
          <mxGeometry x="1520" y="40" width="80" height="80" as="geometry" />
        </mxCell>
        <mxCell id="9klteQdlAnsfhJRgXyKs-49" value="" style="endArrow=none;dashed=1;html=1;rounded=0;" edge="1" parent="1">
          <mxGeometry width="50" height="50" relative="1" as="geometry">
            <mxPoint x="1564.5" y="890" as="sourcePoint" />
            <mxPoint x="1564.5" y="120" as="targetPoint" />
          </mxGeometry>
        </mxCell>
        <mxCell id="9klteQdlAnsfhJRgXyKs-50" value="" style="rounded=0;whiteSpace=wrap;html=1;fillColor=#dae8fc;strokeColor=#6c8ebf;" vertex="1" parent="1">
          <mxGeometry x="1545" y="500" width="40" height="390" as="geometry" />
        </mxCell>
        <mxCell id="9klteQdlAnsfhJRgXyKs-55" value="&lt;font style=&quot;font-size: 19px;&quot;&gt;redirect&amp;nbsp; to login&lt;/font&gt;" style="endArrow=open;endSize=12;dashed=1;html=1;rounded=0;entryX=0.97;entryY=0.058;entryDx=0;entryDy=0;entryPerimeter=0;" edge="1" parent="1" target="9klteQdlAnsfhJRgXyKs-8">
          <mxGeometry width="160" relative="1" as="geometry">
            <mxPoint x="1060" y="230" as="sourcePoint" />
            <mxPoint x="147.5" y="220" as="targetPoint" />
          </mxGeometry>
        </mxCell>
        <mxCell id="9klteQdlAnsfhJRgXyKs-57" value="" style="endArrow=open;endSize=12;dashed=1;html=1;rounded=0;entryX=0.97;entryY=0.382;entryDx=0;entryDy=0;entryPerimeter=0;" edge="1" parent="1">
          <mxGeometry width="160" relative="1" as="geometry">
            <mxPoint x="336.78000000000003" y="380.14" as="sourcePoint" />
            <mxPoint x="63.22999999999981" y="380.0000000000001" as="targetPoint" />
          </mxGeometry>
        </mxCell>
        <mxCell id="9klteQdlAnsfhJRgXyKs-58" value="&lt;font style=&quot;font-size: 17px;&quot;&gt;redirect to the &lt;br&gt;2FA module &lt;br&gt;(unique code)&amp;nbsp;&lt;/font&gt;" style="edgeLabel;html=1;align=center;verticalAlign=middle;resizable=0;points=[];" vertex="1" connectable="0" parent="9klteQdlAnsfhJRgXyKs-57">
          <mxGeometry x="0.0275" relative="1" as="geometry">
            <mxPoint x="14" as="offset" />
          </mxGeometry>
        </mxCell>
        <mxCell id="9klteQdlAnsfhJRgXyKs-65" value="" style="endArrow=classic;html=1;rounded=0;entryX=0;entryY=0;entryDx=0;entryDy=0;" edge="1" parent="1">
          <mxGeometry width="50" height="50" relative="1" as="geometry">
            <mxPoint x="379.64" y="610" as="sourcePoint" />
            <mxPoint x="582.14" y="610.0000000000002" as="targetPoint" />
          </mxGeometry>
        </mxCell>
        <mxCell id="9klteQdlAnsfhJRgXyKs-73" value="&lt;font style=&quot;font-size: 16px;&quot;&gt;token FCM&lt;br&gt;+&lt;br&gt;message&amp;nbsp;&amp;nbsp;&lt;/font&gt;" style="edgeLabel;html=1;align=center;verticalAlign=middle;resizable=0;points=[];" vertex="1" connectable="0" parent="9klteQdlAnsfhJRgXyKs-65">
          <mxGeometry x="-0.0386" y="1" relative="1" as="geometry">
            <mxPoint as="offset" />
          </mxGeometry>
        </mxCell>
        <mxCell id="9klteQdlAnsfhJRgXyKs-67" value="" style="endArrow=classic;html=1;rounded=0;entryX=0;entryY=0;entryDx=0;entryDy=0;" edge="1" parent="1">
          <mxGeometry width="50" height="50" relative="1" as="geometry">
            <mxPoint x="380" y="500" as="sourcePoint" />
            <mxPoint x="1545" y="500.0000000000002" as="targetPoint" />
          </mxGeometry>
        </mxCell>
        <mxCell id="9klteQdlAnsfhJRgXyKs-69" value="&lt;font style=&quot;font-size: 19px;&quot;&gt;request for FCM token&lt;/font&gt;" style="text;html=1;align=center;verticalAlign=middle;resizable=0;points=[];autosize=1;strokeColor=none;fillColor=none;labelBackgroundColor=default;" vertex="1" parent="1">
          <mxGeometry x="660" y="480" width="210" height="40" as="geometry" />
        </mxCell>
        <mxCell id="9klteQdlAnsfhJRgXyKs-71" value="" style="endArrow=open;endSize=12;dashed=1;html=1;rounded=0;entryX=1.106;entryY=0.357;entryDx=0;entryDy=0;entryPerimeter=0;exitX=0.009;exitY=0.15;exitDx=0;exitDy=0;exitPerimeter=0;" edge="1" parent="1">
          <mxGeometry width="160" relative="1" as="geometry">
            <mxPoint x="1545.0000000000002" y="549" as="sourcePoint" />
            <mxPoint x="383.87999999999977" y="547.77" as="targetPoint" />
          </mxGeometry>
        </mxCell>
        <mxCell id="9klteQdlAnsfhJRgXyKs-72" value="&lt;font style=&quot;font-size: 19px;&quot;&gt;FCM token&lt;/font&gt;" style="edgeLabel;html=1;align=center;verticalAlign=middle;resizable=0;points=[];" vertex="1" connectable="0" parent="9klteQdlAnsfhJRgXyKs-71">
          <mxGeometry x="0.068" relative="1" as="geometry">
            <mxPoint as="offset" />
          </mxGeometry>
        </mxCell>
        <mxCell id="9klteQdlAnsfhJRgXyKs-76" value="" style="endArrow=classic;html=1;rounded=0;" edge="1" parent="1">
          <mxGeometry width="50" height="50" relative="1" as="geometry">
            <mxPoint x="70" y="440" as="sourcePoint" />
            <mxPoint x="1060" y="440" as="targetPoint" />
          </mxGeometry>
        </mxCell>
        <mxCell id="9klteQdlAnsfhJRgXyKs-63" value="&lt;font style=&quot;font-size: 19px;&quot;&gt;web page with&lt;br&gt;access code for PN&lt;/font&gt;" style="text;html=1;align=center;verticalAlign=middle;resizable=0;points=[];autosize=1;strokeColor=none;fillColor=none;labelBackgroundColor=default;" vertex="1" parent="1">
          <mxGeometry x="410" y="410" width="190" height="60" as="geometry" />
        </mxCell>
        <mxCell id="9klteQdlAnsfhJRgXyKs-78" value="" style="endArrow=classic;html=1;rounded=0;" edge="1" parent="1">
          <mxGeometry width="50" height="50" relative="1" as="geometry">
            <mxPoint x="620" y="680" as="sourcePoint" />
            <mxPoint x="820" y="680" as="targetPoint" />
          </mxGeometry>
        </mxCell>
        <mxCell id="9klteQdlAnsfhJRgXyKs-79" value="&lt;font style=&quot;font-size: 19px;&quot;&gt;PN with&lt;br&gt;message&lt;/font&gt;" style="edgeLabel;html=1;align=center;verticalAlign=middle;resizable=0;points=[];" vertex="1" connectable="0" parent="9klteQdlAnsfhJRgXyKs-78">
          <mxGeometry x="-0.0666" y="4" relative="1" as="geometry">
            <mxPoint as="offset" />
          </mxGeometry>
        </mxCell>
        <mxCell id="9klteQdlAnsfhJRgXyKs-21" value="" style="endArrow=none;dashed=1;html=1;rounded=0;" edge="1" parent="1">
          <mxGeometry width="50" height="50" relative="1" as="geometry">
            <mxPoint x="599.5" y="890" as="sourcePoint" />
            <mxPoint x="599.5" y="120" as="targetPoint" />
          </mxGeometry>
        </mxCell>
        <mxCell id="9klteQdlAnsfhJRgXyKs-15" value="" style="rounded=0;whiteSpace=wrap;html=1;fillColor=#dae8fc;strokeColor=#6c8ebf;" vertex="1" parent="1">
          <mxGeometry x="582.5" y="610" width="35" height="400" as="geometry" />
        </mxCell>
        <mxCell id="9klteQdlAnsfhJRgXyKs-14" value="" style="rounded=0;whiteSpace=wrap;html=1;fillColor=#dae8fc;strokeColor=#6c8ebf;" vertex="1" parent="1">
          <mxGeometry x="822.5" y="680" width="35" height="330" as="geometry" />
        </mxCell>
        <mxCell id="9klteQdlAnsfhJRgXyKs-11" value="" style="rounded=0;whiteSpace=wrap;html=1;fillColor=#dae8fc;strokeColor=#6c8ebf;" vertex="1" parent="1">
          <mxGeometry x="1302.5" y="719" width="35" height="601" as="geometry" />
        </mxCell>
        <mxCell id="9klteQdlAnsfhJRgXyKs-80" value="" style="endArrow=classic;html=1;rounded=0;" edge="1" parent="1">
          <mxGeometry width="50" height="50" relative="1" as="geometry">
            <mxPoint x="70" y="760" as="sourcePoint" />
            <mxPoint x="820" y="760" as="targetPoint" />
          </mxGeometry>
        </mxCell>
        <mxCell id="9klteQdlAnsfhJRgXyKs-81" value="&lt;font style=&quot;&quot;&gt;&lt;font style=&quot;font-size: 19px;&quot;&gt;enter code +&lt;/font&gt;&lt;br&gt;&lt;span style=&quot;font-size: 19px;&quot;&gt;Approve&lt;/span&gt;&lt;/font&gt;" style="edgeLabel;html=1;align=center;verticalAlign=middle;resizable=0;points=[];" vertex="1" connectable="0" parent="9klteQdlAnsfhJRgXyKs-80">
          <mxGeometry x="-0.0098" y="-1" relative="1" as="geometry">
            <mxPoint x="29" as="offset" />
          </mxGeometry>
        </mxCell>
        <mxCell id="9klteQdlAnsfhJRgXyKs-85" value="&lt;font style=&quot;font-size: 19px;&quot;&gt;send code +&lt;br&gt;action (Approve/Decline)&lt;br&gt;&lt;/font&gt;" style="endArrow=open;endSize=12;dashed=1;html=1;rounded=0;entryX=1.078;entryY=0.552;entryDx=0;entryDy=0;entryPerimeter=0;" edge="1" parent="1" target="9klteQdlAnsfhJRgXyKs-10">
          <mxGeometry x="0.0127" y="-6" width="160" relative="1" as="geometry">
            <mxPoint x="820" y="852" as="sourcePoint" />
            <mxPoint x="390" y="850" as="targetPoint" />
            <mxPoint as="offset" />
          </mxGeometry>
        </mxCell>
        <mxCell id="9klteQdlAnsfhJRgXyKs-87" value="" style="endArrow=classic;html=1;rounded=0;" edge="1" parent="1">
          <mxGeometry width="50" height="50" relative="1" as="geometry">
            <mxPoint x="380" y="920" as="sourcePoint" />
            <mxPoint x="380" y="961" as="targetPoint" />
            <Array as="points">
              <mxPoint x="470" y="920" />
              <mxPoint x="470" y="961" />
            </Array>
          </mxGeometry>
        </mxCell>
        <mxCell id="9klteQdlAnsfhJRgXyKs-88" value="&lt;font style=&quot;font-size: 19px;&quot;&gt;verify code&lt;/font&gt;" style="text;html=1;align=center;verticalAlign=middle;resizable=0;points=[];autosize=1;strokeColor=none;fillColor=none;labelBackgroundColor=default;" vertex="1" parent="1">
          <mxGeometry x="410" y="923" width="120" height="40" as="geometry" />
        </mxCell>
        <mxCell id="9klteQdlAnsfhJRgXyKs-92" value="" style="endArrow=classic;html=1;rounded=0;" edge="1" parent="1">
          <mxGeometry width="50" height="50" relative="1" as="geometry">
            <mxPoint x="70" y="1080" as="sourcePoint" />
            <mxPoint x="1060" y="1080" as="targetPoint" />
          </mxGeometry>
        </mxCell>
        <mxCell id="9klteQdlAnsfhJRgXyKs-95" value="&lt;font style=&quot;font-size: 19px;&quot;&gt;Access token + Refresh token +&lt;br&gt;get resource&lt;br&gt;&lt;/font&gt;" style="edgeLabel;html=1;align=center;verticalAlign=middle;resizable=0;points=[];" vertex="1" connectable="0" parent="9klteQdlAnsfhJRgXyKs-92">
          <mxGeometry x="-0.2506" y="2" relative="1" as="geometry">
            <mxPoint x="99" as="offset" />
          </mxGeometry>
        </mxCell>
        <mxCell id="9klteQdlAnsfhJRgXyKs-93" value="&lt;font style=&quot;font-size: 19px;&quot;&gt;Access token +&lt;br&gt;Refresh token&lt;/font&gt;" style="endArrow=open;endSize=12;dashed=1;html=1;rounded=0;exitX=0;exitY=0.693;exitDx=0;exitDy=0;exitPerimeter=0;" edge="1" parent="1" source="9klteQdlAnsfhJRgXyKs-10">
          <mxGeometry width="160" relative="1" as="geometry">
            <mxPoint x="330" y="1000" as="sourcePoint" />
            <mxPoint x="70" y="1001" as="targetPoint" />
          </mxGeometry>
        </mxCell>
        <mxCell id="9klteQdlAnsfhJRgXyKs-97" value="" style="endArrow=classic;html=1;rounded=0;entryX=-0.014;entryY=0.701;entryDx=0;entryDy=0;entryPerimeter=0;" edge="1" parent="1" target="9klteQdlAnsfhJRgXyKs-11">
          <mxGeometry width="50" height="50" relative="1" as="geometry">
            <mxPoint x="1100" y="1140" as="sourcePoint" />
            <mxPoint x="1150" y="1090" as="targetPoint" />
          </mxGeometry>
        </mxCell>
        <mxCell id="9klteQdlAnsfhJRgXyKs-99" value="&lt;font style=&quot;font-size: 18px;&quot;&gt;Access token +&lt;br&gt;&amp;nbsp;refresh token&lt;/font&gt;" style="edgeLabel;html=1;align=center;verticalAlign=middle;resizable=0;points=[];" vertex="1" connectable="0" parent="9klteQdlAnsfhJRgXyKs-97">
          <mxGeometry x="-0.1054" y="3" relative="1" as="geometry">
            <mxPoint as="offset" />
          </mxGeometry>
        </mxCell>
        <mxCell id="9klteQdlAnsfhJRgXyKs-100" value="" style="endArrow=classic;html=1;rounded=0;exitX=-0.071;exitY=0.8;exitDx=0;exitDy=0;entryX=1.05;entryY=0.889;entryDx=0;entryDy=0;exitPerimeter=0;entryPerimeter=0;" edge="1" parent="1" source="9klteQdlAnsfhJRgXyKs-11" target="9klteQdlAnsfhJRgXyKs-10">
          <mxGeometry width="50" height="50" relative="1" as="geometry">
            <mxPoint x="900" y="1300" as="sourcePoint" />
            <mxPoint x="950" y="1250" as="targetPoint" />
          </mxGeometry>
        </mxCell>
        <mxCell id="9klteQdlAnsfhJRgXyKs-101" value="&lt;font style=&quot;font-size: 19px;&quot;&gt;validate the access token&lt;/font&gt;" style="edgeLabel;html=1;align=center;verticalAlign=middle;resizable=0;points=[];" vertex="1" connectable="0" parent="9klteQdlAnsfhJRgXyKs-100">
          <mxGeometry x="-0.0225" y="-2" relative="1" as="geometry">
            <mxPoint as="offset" />
          </mxGeometry>
        </mxCell>
        <mxCell id="9klteQdlAnsfhJRgXyKs-102" value="&lt;font style=&quot;font-size: 19px;&quot;&gt;OK&lt;/font&gt;" style="endArrow=open;endSize=12;dashed=1;html=1;rounded=0;entryX=-0.046;entryY=0.902;entryDx=0;entryDy=0;entryPerimeter=0;" edge="1" parent="1" target="9klteQdlAnsfhJRgXyKs-11">
          <mxGeometry width="160" relative="1" as="geometry">
            <mxPoint x="380" y="1260" as="sourcePoint" />
            <mxPoint x="540" y="1260" as="targetPoint" />
          </mxGeometry>
        </mxCell>
        <mxCell id="9klteQdlAnsfhJRgXyKs-105" value="&lt;font style=&quot;font-size: 16px;&quot;&gt;Protected resource&lt;/font&gt;" style="endArrow=open;endSize=12;dashed=1;html=1;rounded=0;exitX=0;exitY=1;exitDx=0;exitDy=0;entryX=1;entryY=1;entryDx=0;entryDy=0;" edge="1" parent="1" source="9klteQdlAnsfhJRgXyKs-11" target="9klteQdlAnsfhJRgXyKs-18">
          <mxGeometry width="160" relative="1" as="geometry">
            <mxPoint x="1120" y="1310" as="sourcePoint" />
            <mxPoint x="1280" y="1310" as="targetPoint" />
          </mxGeometry>
        </mxCell>
        <mxCell id="9klteQdlAnsfhJRgXyKs-106" value="&lt;font style=&quot;font-size: 18px;&quot;&gt;Protected resource&lt;/font&gt;" style="endArrow=open;endSize=12;dashed=1;html=1;rounded=0;exitX=0;exitY=1;exitDx=0;exitDy=0;entryX=1;entryY=1;entryDx=0;entryDy=0;" edge="1" parent="1" source="9klteQdlAnsfhJRgXyKs-18" target="9klteQdlAnsfhJRgXyKs-8">
          <mxGeometry width="160" relative="1" as="geometry">
            <mxPoint x="680" y="1330" as="sourcePoint" />
            <mxPoint x="840" y="1330" as="targetPoint" />
          </mxGeometry>
        </mxCell>
        <mxCell id="9klteQdlAnsfhJRgXyKs-107" value="" style="endArrow=classic;html=1;rounded=0;entryX=1.022;entryY=0.068;entryDx=0;entryDy=0;entryPerimeter=0;" edge="1" parent="1" target="9klteQdlAnsfhJRgXyKs-10">
          <mxGeometry width="50" height="50" relative="1" as="geometry">
            <mxPoint x="380" y="320" as="sourcePoint" />
            <mxPoint x="380" y="360" as="targetPoint" />
            <Array as="points">
              <mxPoint x="470" y="320" />
              <mxPoint x="470" y="351" />
            </Array>
          </mxGeometry>
        </mxCell>
        <mxCell id="9klteQdlAnsfhJRgXyKs-108" value="&lt;font style=&quot;font-size: 17px;&quot;&gt;validate login&lt;br&gt;&amp;nbsp;with AD&lt;/font&gt;" style="edgeLabel;html=1;align=center;verticalAlign=middle;resizable=0;points=[];" vertex="1" connectable="0" parent="9klteQdlAnsfhJRgXyKs-107">
          <mxGeometry x="-0.0515" y="1" relative="1" as="geometry">
            <mxPoint x="-11" y="-14" as="offset" />
          </mxGeometry>
        </mxCell>
      </root>
    </mxGraphModel>
  </diagram>
</mxfile>
